<?xml version="1.0" encoding="UTF-8"?><svg id="Camada_2" xmlns="http://www.w3.org/2000/svg" viewBox="0 0 335.5 340.48"><defs><style>.cls-1{fill:#ed1c24;}</style></defs><g id="Layer_1"><g><path class="cls-1" d="M223.63,9.71C165.12-11,101.36,2.47,57.58,40.07,30.99,62.91,15.21,88.36,6.35,124.05-4.38,167.33-3.36,211.05,23.88,255.58c.06,.11,.13,.21,.19,.32,.1,.35,.23,.68,.41,.96,.15,.24,.37,.47,.61,.68,25.69,41.14,59.39,67.95,108.89,79.03,52.47,11.76,95.74-4.35,132.63-30.92,50.87-36.63,62.37-100.16,65.15-113.1,17.17-79.76-25.62-153.65-108.13-182.85m-65.51,12.27c.15,4.6,5.28,13.6,10.47,13.37,6.61-.3,10.74-10.61,10.46-17.83-.08-2.15-.93-4.03-2.32-5.48,15.93-.72,26.13,14.47,28.15,17.77,6.09,9.93,13.44,32.85-3.66,44.72-6.65,4.61-10.97,7.68-21.48,10.65-5.66,1.6-11.55,2.28-17.37,3.17-1.05,.16-2.58-.54-3.36-1.35-3.96-4.13-5.67-9.55-8.07-14.59-2.23-4.68-4.14-9.45-4.68-14.61-.29-2.72-.12-5.52,.15-8.26,.32-3.23,.55-6.52,1.45-9.65,3.37-11.69,7.23-18.09,10.94-21.79-.46,1.31-.7,2.64-.66,3.9M12.11,190.16c-3.96-29.38,1.28-59.6,5.86-73.16,7.7-22.8,20.33-43.91,32.84-58.01C80.59,25.42,115.32,10.57,156.02,9.71c-3.45,2.56-11.34,8.78-15.57,23.36-.84,2.9-1.35,5.88-1.98,8.84-.37,1.74-.67,3.5-.92,5.26-.1,.7,.02,1.43,.01,2.15,0,.28,0,.55-.01,.83-2.84-1.38-6.36-1.39-9.5,1.49-6.07,5.59-7.47,15.08-6.1,16.72,2.03,2.42,6.93,2.94,10.42,2.2,2.89-.61,5.16-1.77,6.84-3.45,.41,1.44,.88,2.85,1.44,4.21,2.58,6.35,5.75,12.48,8.92,19.23-16.29,1.94-30.6,8.26-41.74,21.52-.02-.05-.04-.1-.07-.14-.74-2.54-1.3-4.8-2.07-6.99-2.06-5.81-3.82-6.17-5.85-6.71-2.75-.74-5.27-.58-7.41-.09-1.63,.37-2.08,1.4-1.87,2.25-.08,.19-.13,.38-.14,.54-.07,1.61,.31,3.24,.52,4.86,.14,1.1,.31,2.19,.46,3.29-3.85-3.48-8.01-5.38-12.72-6.55-4.44-1.11-6.73-.62-8.69,3.5-.88,1.85-.97,4.08-1.37,6.15-.18,.94-.25,1.91-.34,2.58-3.05,.2-6.24-.46-8.19,.8-1.78,1.14-2.22,4.37-3.37,6.97-4.44,.67-6.34,.68-6.93,5.92-.21,1.9-.44,3.32-.85,5.22-.39,1.79-.1,4.65,.09,6.42,.3,2.75,1.23,5.42,1.74,8.16,1.12,5.96,6.49,21.99,6.13,26.89-.38,5.18-1.73,10.3-4.61,14.83-2.57,4.04-4.66,7.92-7.14,12.04-3.29,5.46-6.41,11.02-9.28,16.71-3.13,6.18-6.29,12.41-8.62,18.91-.59,1.63-1.04,3.32-1.42,5.03-8-17.47-11.62-36.8-13.73-52.49m308.4,6.99s0,.09-.01,.14c-4.91,24.48-15.33,55.38-37.42,79.38-32.07,34.85-81.15,57.25-136.62,50.32-51.38-6.42-89.31-31.11-112.28-68.7-1.12-3.88-2.13-9.69-1.82-12.32,.99-8.39,3.73-16.17,8.17-23.37,2.17-3.52,15.67-23.8,17.03-26.38,5.9-11.16,3.81-15.77,4.63-23.96,.04-.36-.04-2.02-.18-4.16,1.64,.15,3.31-.55,4.18-2,.71-1.2,.94-2.73,1.36-4.13,1.16-3.88,1.25-4.4,3.14-7.97,2.85-5.36,6.49,3.56,11.58-2.24,2.04-2.33,2.73-2.86,4.72-5.26,1.07-1.29,2.54-2.2,3.85-3.25,.63-.5,1.86-.96,1.86-1.4,.01-1.07-.27-2.45-.92-3.09-.77-.75-5.59-1.59-10.42,4.43-4.52,5.63-10.55-6.63-12.84,1.49-1.18,4.2-2.96,8.22-4.53,12.29v.02c-.34,.85-1.46,1.05-2.07,.36-.33-.37-.65-.75-.97-1.1-.02-.08-.03-.15-.05-.19-.02-.06-.04-.12-.06-.19-.23-.72-.35-1.54-.53-2.41-.62-2.95-1.36-5.96-2.62-8.7-4.85-10.6-3.74-14.19-3.71-14.44,.01-.12,.02-.23,.05-.35,.76-2.85,2.4-1.5,2.5-1.43,1.3,.88,2.34,1.82,3.48,2.88,1.53,1.42,2.85,3.02,4.44,1.57,1.09-.99,1.78-2.91,1.83-4.44,.06-2.1-1.05-5.8-1.6-8.8-.07-.35,.31-.21,.63-.39,2.19-1.26,4.16,1.16,4.76,1.74,1.88,1.81,3.22,4.01,4.48,3.67,1.84-.51,3.68-6.2,2.54-8.77-1.34-3.03-2.88-2.75-3-6.08-.07-1.78,1.56-3.23,3.62-3.3,5.97-.21,10.7,3.26,12.58,9.35,.11,.37,.2,1.06,.31,1.81,.19,1.37,1.93,1.84,2.78,.75,.7-.9,2.5-3.95,2.83-4.82,1.39-3.77,.97-7.34-.36-10.77,4.39,1.77,6.57,4.05,7.59,6.23,1.21,2.6,.76,5.73,.55,7.23-.3,2.12-.77,5.4-1.29,8.97-1.58,10.92-3.8,13.07-4.22,13.4-1.21,.91-1.46,2.63-.55,3.85,.54,.72,1.36,1.1,2.2,1.1,.57,0,1.15-.18,1.65-.55,1.88-1.41,4.58-4.72,6.37-17.05,.58-4,.61-6.58,.56-8.01-.19-1.74,2.58-3.21,4.03-3.84,2.47-1.07,4.63-2.13,6.59-3.14,2.7,11.6-14.73,37.88-16.6,40.69-3.3,4.98-23.66,44.13-28.07,55.4-1.2,3.06-7.94,17.12-4.58,32.08,5.68,25.32,38.54,42.67,45.82,44.99,2.65,.84,5.45,1.33,8.23,1.44,11.12,.42,12.06,0,18.56,0,5.33,0,8.71,1.82,11.33,5.8,2.03,3.08,4.22,6.06,6.22,9.15,1.4,2.18,3.67,1.94,5.12,1.06,1.16-.7,2.17-3.34,.64-6.65-1.79-3.88-2.97-5.3-5.87-8.38-2.69-2.86-6.36-4.81-9.17-6.85,1.15-.66,3.28-2.19,4.19-3.43,2.16-2.93,3.62-5.18,5.52-8.31,.72-1.17,1.34-2.5,2.34-3.4,2.45-2.23,5.5-2.11,8.94,.28,1.41,.98,2.92,.54,3.36-.42,.66-1.45,.85-3.61-.71-4.95-3.42-2.93-9.1-4.13-12.85-.37-2.65,2.65-4.92,5.74-7.05,8.84-2.03,2.93-3.59,6.18-5.53,9.17-.38,.59-1.58,.86-2.34,.92-3.71,.3-6.28,.12-9.94-.49-.84-.14-2.43-.39-3.92-.63-.28-.04-.36-.41-.12-.57,1.71-1.12,2.98-2.55,4.05-3.37,7.28-5.61,12.75-12.76,16.1-21.22,1.98-4.99,5.43-6.95,10.16-8.36,1.78-.53,3.59-1.47,4.15-2.25,.17-.23,.33-.46,.21-.71h0c-.11-.25-.37-.38-.63-.33-3.06,.64-6.11,1.36-9.19,1.89-4.48,.76-7.96,3.19-11.22,6.16-10.37,9.43-10.3,21.47-18.54,23.82-3.89,1.11-6.81,.77-12.17-1.05-2.65-.9-7.72-2.81-12.64-5.32-9.18-4.68-27.1-23.19-26.84-31.27,.3-9.1,1.23-11,3.77-16.81,2.06-4.73,3.96-9.53,6.06-14.24,2.44-5.46,5-10.88,7.59-16.28,2.16-4.5,4.03-9.23,6.78-13.35,3.67-5.48,8.22-13.99,11.25-19.96,8.7-17.12,12.29-44.48,12.29-44.48,0,0-.28-.17-.71-.39,.25-.14,.5-.28,.74-.42-.23,2.89,.72,5.66,2.26,8.35,1.68,2.95,7.39,8.73,10.41,7.12,4.58-2.45,4.66-11.75,5.02-16.25,.16-1.97-.7-3.97-2.05-5.57,5.22-1.18,10.51-2.1,15.78-3.01,1.22-.21,2.98,.23,3.89,1.04,7.56,6.81,16.62,10.94,25.99,14.31,4.4,1.58,9.21,1.99,13.75,3.25,.89,.25,1.79,.46,2.69,.66-2.17,2.64-2.71,5.69-2.34,8.83-.34,4.81,3.6,12.87,7.31,11.16,6.73-3.12,11.16-12.03,9.54-18.44,3.63,.16,7.26,.28,10.88,.6,4.29,.39,13.81,.56,18.15,.55,5.43,0,7.82-.41,13.23-.07,2.54,.16,4.57,.18,6.58,.35-2.84,.92-4.56,3.07-5.88,5.66-.83,1.65-1.25,3.86-1.38,5.34-.63,6.88,5.23,6.94,9.48,6.09,8.17-1.63,12.02-7.39,9.15-13.57-.16-.35-.33-.67-.52-.96,5.31,1.72,10.49,3.88,14.9,7.48,3.61,2.94,7.17,6.07,10.09,9.66,2.8,3.44,5.05,7.44,7,11.45,.8,1.65,1.57,3.31,2.31,5-4.15-.9-8.64,1.43-10.54,5.71-1.27,2.86-.41,13.02,2.66,14.42,4.94,2.25,9.87-3.09,12.56-7.79,1.71,5.2,3.23,10.48,4.5,15.81,.77,3.24,1.2,9.94,1.06,11.38m3.75-26.62c-2.14-8.19-5.43-23-22.91-41.6-3.87-4.12-10.47-8.53-15.4-11.27-10.39-5.04-21.94-7.79-33.46-7.44-11.93,.42-25.25,2.61-46.91-.23,4.12-3.91,5.95-11.21,3.83-15.41-2.42-4.32-10.17-.81-13.54,2.4-3.17,2.98-4.8,6.52-3.62,10.73-7.19-1.76-13.49-5.12-19.71-8.94-.91-.56-1.76-1.22-2.66-1.84,7.62-2.8,14.73-5.61,21.97-8.02,7.08-2.35,13.15-6.26,18.14-11.64,3.19-3.44,5.77-7.18,7.65-11.25,.07,.06,.13,.12,.21,.16,3.34,2.29,7.44,3.12,11.22,.75,3.9-2.45,12.02-7.76,11.38-12.87-.09-5.97-5.97-5.09-11.53-6.36-3.37-.78-5.96-.33-7.73,.8-.09-5.28-1.17-9.9-3.75-15.15-1.42-2.88-6.45-12.28-15.9-19.52,5.39,1.01,10.87,2.19,16.43,3.54,72.4,17.59,106.91,100.2,106.91,139.18,0,1.11,0,6.21-.63,13.95"/><path class="cls-1" d="M182.21,201.72c.72-.43,1.43-1.12,2.19-1.19,4.63-.38,9.1-4.44,9.91-9.13,.46-2.65,.68-5.4,1.55-7.91,1.51-4.34,2.33-8.99,5.63-12.61,3.35-3.67,6.46-4.67,11.1-3.18,1.47,.47,3.05,.96,4.54,.88,1.09-.05,2.6-.87,3.03-1.64,.82-1.45-.5-2.61-1.34-3.15-4.78-3.12-11.05-3.26-16.08,.54-4.24,3.21-5.91,7.95-7.64,12.67-.88,2.41-1.85,4.79-2.82,7.27-3.15-2.96-6.17-5.05-10.4-4.25-.54,.1-1.42-.24-1.73-.67-.27-.38-.04-1.19,.1-1.78,.47-1.82,1.38-3.62,1.44-5.44,.18-5.18-.19-10.38,.06-15.55,.17-3.43,3.13-6.99,5.61-7.07,3.87-.13,6.36,2.38,8.72,5.08,.27,.31,.59,.58,.93,.83,.91,.67,2.22,.43,2.81-.54,.35-.58,.63-1.16,.63-1.74,.04-4.31-2.52-6.9-6.11-9.05-5.96-3.57-13.27,.15-15.64,5.63-2.72,6.27-2.98,12.5-2.3,19.05,.14,1.39,.16,2.81,.13,4.21-.04,2.28-1.58,4.25-3.77,4.89-.03,0-.07,.02-.1,.03-2.1,.66-3.52,.21-4.92-1.67-2.21-2.95-5.47-3.2-8.85-2.43-1.07,.24-2.11,.62-3.1,.91-3.11-4.08-6.4-4.78-10.94-2.46-3.75,1.91-4.4,4.45-2.43,10.09-3.43,1.81-4.33,5.07-4.03,8.65,.26,3.03,.92,5.99,2.84,7.89,.33,.32,.18,.89-.27,1.03-2.18,.66-4.3,.75-8.47,3.46-4.77,3.1-6.82,7.92-8.42,13.6-2.1,7.42-3.88,13.92-12.06,17.76-2.07,.97-3.77,1.83-12.34,.61-.76-.11-1.96-.29-2.36,1.1-.27,.95,.19,1.73,.89,2.39,.71,.68,2.48,1.1,3.5,1.23,3.5,.44,4.23,.46,7.27,.18,6.07-.57,10.46-3.48,14.11-5.99,3.46-2.38,4.97-6.69,6.42-10.7,1.48-4.08,2.66-8.35,4.75-12.09,1.94-3.48,4.78-6.59,9.67-6.23,.97,4.71,2.83,8.53,8.3,8.83-.81,1.57-1.41,2.93-2.21,4.15-.35,.54-1.06,1.12-1.66,1.19-4.59,.56-6.51,3.63-7.15,7.7-1.58,10.02-5.09,16.32-11.47,23.61-2.71,3.09-8.8,4.6-12.47,4.28-3.08-.27-4.08-1.45-8.21-3.58-1.5-.77-3.11,.83-2.34,2.33,.46,.9,.95,1.85,1.43,2.79,2.25,4.36,6.71,7.16,11.61,7.2,3.57,.03,7.31-.49,10.7-2.09,4.74-2.24,5.81-5.47,7.59-8.15,3.73-5.61,6.01-11.85,6.52-18.66,.29-3.95,1.21-7.66,4.75-10.15,4.47,7.21,6.34,8.26,12.48,6.36,1.96-.61,4.43-1.62,5.29-3.19,1.24-2.29,1.23-5.27,1.83-8.33,3.64-.52,7.33-2.67,7.72-7.05,.41-4.61,1.48-8.31,5.55-10.77m.97-17.23c2.7-.17,5.71,2.32,5.73,4.72,.02,2.41-.37,7.83-6.21,7.33-1.85-.16-4.91-3.23-4.97-5.43-.07-2.71,3.02-6.47,5.44-6.62m-16.77-.52c.85-1,1.74-1.93,2.79-2.75,.94-.74,4.41-.03,6.39,.61,.77,.25,1.26,2.31,.8,3.23-1.62,3.28-2.54,4.72-4.99,4.98-4.34,.46-7.35-3.27-4.99-6.07m-11.48,1.03c1.35-1.13,2.43-2.48,2.02-5.94-.25-2.12,2.94-2.07,4.57-1.33,1.58,.72,1.74,1.73,1.92,4.24,.24,3.46-2.81,4.51-8.13,4.19-.59-.03-.83-.78-.38-1.16m9.28,12c-.51,.91-1.1,1.77-1.73,2.62-1.44,1.95-4.51,1.25-4.99-1.12-.31-1.55-.56-3.09-.54-4.63,.02-2.12,2.06-2.99,4.24-2.25,2.38,.81,4.05,3.53,3.02,5.38m-16.29-22.5c1.08-.31,2.14-.16,3.1,.49,2.53,1.72,2.72,3.89,1.91,6.48-.53,1.7-2.68,2.39-4.22,1.38-.62-.4-1.23-.8-1.84-1.2-2.88-1.89-2.31-6.19,1.05-7.15m-4.81,15.24c.08-2.98,2.11-3.1,3.9-2.84,1.31,.19,2.6,.48,3.92,.81,2.26,.57,3.42,3.35,2.34,5.62-.05,.11-.1,.21-.15,.32-.56,1.16-1.68,1.85-2.87,1.75-.96-.07-1.9-.14-2.85-.15-2.22,0-4.36-2.7-4.29-5.51m9.49,18.53c-2.29,.33-5.45-3.1-4.93-5.64,.17-.82,.82-1.49,1.57-2.13,1.37-1.17,3.18-1.31,4.6-.23,1.64,1.24,2.77,3.09,2.72,4.98-.08,3.29-2.39,2.8-3.95,3.03m7.66,19.63c-2.63,.02-6.6-4.72-6.58-7.85,.01-1.9,1.86-3.42,4.05-3.33,3.58,.15,6.91,3.43,6.86,6.77-.04,2.69-1.71,4.38-4.34,4.4m7.7-13.37c-1.56-.43-3.11-.9-4.65-1.39-.36-.11-.73-.24-1.1-.36-1.72-.57-2.68-2.36-2.3-4.13v-.03c1.15-5.29,5.29-6.83,9.13-3.01,1.42,1.41,2.08,3.98,2.28,6.1,.17,1.71-.93,3.48-3.37,2.81m3.85-12.07c-.67-.8-1.36-1.35-2-1.72-1.11-.65-1.72-1.88-1.56-3.16,.07-.55,.11-1.09,.09-1.63-.05-1.65,1.24-3.02,2.88-3.19,.03,0,.05,0,.08,0,1.17-.13,2.3,.41,2.92,1.41,.87,1.38,1.91,2.54,3.11,3.6,.57,.5,.52,2.15-.12,3.87-.86,2.28-3.85,2.71-5.41,.83"/><path class="cls-1" d="M250.6,238.77c-1.29-2.58-2.6-4.48-3.73-6.28-.36-.56-.16-1.31,.42-1.63,3.4-1.88,7.05-3.71,9.65-5.48,1.82-1.24,2.43-2.91,1.25-4.62-.67-.97-1.58-1.84-2.54-2.54-4.92-3.62-9.9-7.17-14.85-10.74-2.48-1.78-5-3.53-7.45-5.35-5.49-4.09-10.94-8.24-16.47-12.27-.14-.1-.3-.15-.49-.18-1.12-.15-2.05,.9-1.81,2,.04,.2,.12,.38,.24,.51,1.47,1.66,3.15,3.14,4.8,4.63,5.44,4.89,10.26,8.83,15.88,13.51,3.96,3.3,7.68,6.34,11.12,8.92,1.35,1.01,1.32,3.03-.06,4.01-1.37,.97-2.84,1.88-4.83,3.03-1.86,1.08-1.92,3.4-.91,5.79,3.46,8.18,9.19,22.9,10.78,27.47,1.29,3.73,1.59,5.66-1.41,7.91-4.52,3.39-8.39,5.9-12.09,7.25-3.8,1.39-8.01,2.57-11.82,2.24-4.42-.39-9.38-2.07-11.04-7.54-.17-.56-1.57-5.9-6.64-1.69-1.31,1.09-2.5,2.48-1.36,4.34,1.19,1.96,2.38,3.97,3.88,5.7,8.42,9.7,17.52,18.73,27.75,26.52,1.31,1,2.76,1.64,4.32,2.04,2.67,.69,4.52-2.61,2.58-4.57-5.48-5.5-12.03-9.58-17.38-15.07-.72-.74-.4-1.99,.59-2.29,1.67-.5,3.22-.96,4.74-1.48,7.39-2.54,10.92-4.97,17.67-9.41,1.29-.85,4.82-4.06,5.61-5.28,2.92-4.49,3.21-9.32,.94-14.21-2.39-5.12-2.86-6.26-7.33-15.26"/><path class="cls-1" d="M211.52,182.39c-3.42,3.72-6.35,8.27-12.6,6.71-2.56-.82-2.2,1.35-.22,2.11,1.64,.63,3.38,1.06,4.75,1.17,5.45,.44,8.95-2.53,12.16-6.12,2.48-2.78,5.36-5.27,8.33-7.52,2.72-2.06,7.23-1.15,9.16,1.66,.73,1.05,1.36,2.2,1.79,3.42,1.2,3.38,2.39,3.5,3.19,3.53,.81,.03,1.77-.29,2.09-2.15,.59-3.44,.42-6.43-1.45-8.71-3.16-3.83-6.83-5.38-11.26-5.55-2.16-.09-5.55,1.05-7.12,2.33-3.26,2.65-5.97,6-8.83,9.13"/><path class="cls-1" d="M201.67,225.81s-.09,.04-.13,.06c-2.2,1.12-3.13,.08-3.46-1.91-.38-2.2,.87-14.02-6.01-17.11-5.65-2.54-10.48,.31-11.55,5.25-.13,.6,.05,1.27,.3,1.95,.19,.51,.61,.86,1.09,.97,.39,.09,.82,.04,1.19-.2,.43-.28,1.73-1.45,2-1.7,2.15-2,3.86-1.77,4.81,.98,.75,2.15,1.02,4.5,1.35,6.78,.58,4,.97,8.59,5.2,9.99,2.91,.97,6.75-1.85,7.1-3.94,.19-1.13-.81-1.52-1.88-1.12"/><path class="cls-1" d="M190.02,246.93c-3.16,1.07-3.48,.36-2.73-2.55,.21-.81,.48-1.59,.69-2.4,1.97-7.49,1.59-13.47-5.08-18.43-1.45-1.08-3.05-1.95-5.33-1.75-.98,.08-3.09,1.43-2.94,2.82,.14,1.19,1.95,1.71,3.03,1.85,3,.41,3.88,1.24,3.74,4.53-.16,3.88-.36,7.75-.56,11.62-.21,3.99,4.94,9.07,8.98,9.06,2.03,0,3.07-.71,3.81-2.61,.6-1.53-.57-3.17-3.61-2.14"/><path class="cls-1" d="M212.58,209.15c-.4-2.35,.81-2.9,2.58-3.34,.79-.2,1.66-.42,2.27-.92,.38-.3,1.05-1.15,.76-1.83-.34-.79-1.43-.7-1.84-.57-3.25,1-6.55,1.93-9.64,3.31-1.75,.78-3.33,2.47-2.51,4.68,.12,.34,.36,.64,.64,.9,.79,.73,1.86,1.09,2.93,1.04,3.71-.16,5.15-1.22,4.8-3.27"/></g></g></svg>